{
  "accessors": [
    {
      "bufferView": 2,
      "componentType": 5126,
      "count": 10,
      "max": [
        0.9999998807907104,
        2.9050002098083496,
        1.25
      ],
      "min": [
        -1.0000001192092896,
        0.8500000834465027,
        0.7400000095367432
      ],
      "type": "VEC3"
    },
    {
      "bufferView": 2,
      "byteOffset": 120,
      "componentType": 5126,
      "count": 10,
      "max": [
        0.0,
        1.0,
        0.35049188137054443
      ],
      "min": [
        0.0,
        0.9365657567977905,
        0.0
      ],
      "type": "VEC3"
    },
    {
      "bufferView": 1,
      "componentType": 5126,
      "count": 10,
      "max": [
        0.0,
        0.0
      ],
      "min": [
        0.0,
        0.0
      ],
      "type": "VEC2"
    },
    {
      "bufferView": 0,
      "componentType": 5125,
      "count": 18,
      "type": "SCALAR"
    },
    {
      "bufferView": 2,
      "byteOffset": 240,
      "componentType": 5126,
      "count": 1835,
      "max": [
        0.9999998807907104,
        2.9050002098083496,
        1.25
      ],
      "min": [
        -1.0000001192092896,
        -2.25,
        0.0
      ],
      "type": "VEC3"
    },
    {
      "bufferView": 2,
      "byteOffset": 22260,
      "componentType": 5126,
      "count": 1835,
      "max": [
        1.0,
        1.0,
        1.0
      ],
      "min": [
        -1.0,
        -1.0,
        -1.0
      ],
      "type": "VEC3"
    },
    {
      "bufferView": 1,
      "byteOffset": 80,
      "componentType": 5126,
      "count": 1835,
      "max": [
        0.0,
        0.0
      ],
      "min": [
        0.0,
        0.0
      ],
      "type": "VEC2"
    },
    {
      "bufferView": 0,
      "byteOffset": 72,
      "componentType": 5125,
      "count": 3132,
      "type": "SCALAR"
    },
    {
      "bufferView": 2,
      "byteOffset": 44280,
      "componentType": 5126,
      "count": 590,
      "max": [
        0.9999998807907104,
        2.9750301837921143,
        1.25
      ],
      "min": [
        -1.0000001192092896,
        -2.25,
        0.0
      ],
      "type": "VEC3"
    },
    {
      "bufferView": 2,
      "byteOffset": 51360,
      "componentType": 5126,
      "count": 590,
      "max": [
        1.0,
        0.8000022172927856,
        1.0
      ],
      "min": [
        -1.0,
        -0.7071167230606079,
        -0.9284767508506775
      ],
      "type": "VEC3"
    },
    {
      "bufferView": 1,
      "byteOffset": 14760,
      "componentType": 5126,
      "count": 590,
      "max": [
        0.0,
        0.0
      ],
      "min": [
        0.0,
        0.0
      ],
      "type": "VEC2"
    },
    {
      "bufferView": 0,
      "byteOffset": 12600,
      "componentType": 5125,
      "count": 963,
      "type": "SCALAR"
    },
    {
      "bufferView": 2,
      "byteOffset": 58440,
      "componentType": 5126,
      "count": 60,
      "max": [
        0.9978765249252319,
        2.8766651153564453,
        1.25
      ],
      "min": [
        -0.997876763343811,
        -0.9235744476318359,
        0.7620842456817627
      ],
      "type": "VEC3"
    },
    {
      "bufferView": 2,
      "byteOffset": 59160,
      "componentType": 5126,
      "count": 60,
      "max": [
        0.9938735365867615,
        0.20952902734279633,
        0.9778025150299072
      ],
      "min": [
        -0.9938655495643616,
        -0.4902612268924713,
        -0.05541236326098442
      ],
      "type": "VEC3"
    },
    {
      "bufferView": 1,
      "byteOffset": 19480,
      "componentType": 5126,
      "count": 60,
      "max": [
        0.0,
        0.0
      ],
      "min": [
        0.0,
        0.0
      ],
      "type": "VEC2"
    },
    {
      "bufferView": 0,
      "byteOffset": 16452,
      "componentType": 5125,
      "count": 84,
      "type": "SCALAR"
    },
    {
      "bufferView": 2,
      "byteOffset": 59880,
      "componentType": 5126,
      "count": 31,
      "max": [
        0.9999998807907104,
        2.442826509475708,
        0.07496543228626251
      ],
      "min": [
        -1.0000001192092896,
        -2.074965476989746,
        0.0
      ],
      "type": "VEC3"
    },
    {
      "bufferView": 2,
      "byteOffset": 60252,
      "componentType": 5126,
      "count": 31,
      "max": [
        0.7386830449104309,
        0.7071064114570618,
        -0.6721952557563782
      ],
      "min": [
        -0.7386855483055115,
        -0.04997187480330467,
        -0.7071072459220886
      ],
      "type": "VEC3"
    },
    {
      "bufferView": 1,
      "byteOffset": 19960,
      "componentType": 5126,
      "count": 31,
      "max": [
        0.0,
        0.0
      ],
      "min": [
        0.0,
        0.0
      ],
      "type": "VEC2"
    },
    {
      "bufferView": 0,
      "byteOffset": 16788,
      "componentType": 5125,
      "count": 75,
      "type": "SCALAR"
    },
    {
      "bufferView": 2,
      "byteOffset": 60624,
      "componentType": 5126,
      "count": 148,
      "max": [
        0.9112480878829956,
        2.4928267002105713,
        0.699999988079071
      ],
      "min": [
        -0.9112483263015747,
        -1.9749999046325684,
        0.009130649268627167
      ],
      "type": "VEC3"
    },
    {
      "bufferView": 2,
      "byteOffset": 62400,
      "componentType": 5126,
      "count": 148,
      "max": [
        0.9975581169128418,
        0.9340270161628723,
        0.9958932399749756
      ],
      "min": [
        -0.9974237084388733,
        -0.810189962387085,
        -1.0
      ],
      "type": "VEC3"
    },
    {
      "bufferView": 1,
      "byteOffset": 20208,
      "componentType": 5126,
      "count": 148,
      "max": [
        0.0,
        0.0
      ],
      "min": [
        0.0,
        0.0
      ],
      "type": "VEC2"
    },
    {
      "bufferView": 0,
      "byteOffset": 17088,
      "componentType": 5125,
      "count": 222,
      "type": "SCALAR"
    },
    {
      "bufferView": 2,
      "byteOffset": 64176,
      "componentType": 5126,
      "count": 300,
      "max": [
        0.9685901403427124,
        1.6833337545394897,
        0.8000003099441528
      ],
      "min": [
        -0.9685901999473572,
        -2.25,
        0.050000011920928955
      ],
      "type": "VEC3"
    },
    {
      "bufferView": 2,
      "byteOffset": 67776,
      "componentType": 5126,
      "count": 300,
      "max": [
        0.9987505674362183,
        0.4244292676448822,
        1.0
      ],
      "min": [
        -0.9987505078315735,
        -1.0,
        -1.0
      ],
      "type": "VEC3"
    },
    {
      "bufferView": 1,
      "byteOffset": 21392,
      "componentType": 5126,
      "count": 300,
      "max": [
        0.0,
        0.0
      ],
      "min": [
        0.0,
        0.0
      ],
      "type": "VEC2"
    },
    {
      "bufferView": 0,
      "byteOffset": 17976,
      "componentType": 5125,
      "count": 558,
      "type": "SCALAR"
    },
    {
      "bufferView": 2,
      "byteOffset": 71376,
      "componentType": 5126,
      "count": 30,
      "max": [
        0.9993220567703247,
        2.9028003215789795,
        0.8157147169113159
      ],
      "min": [
        -0.9993222951889038,
        -2.25,
        0.4096640944480896
      ],
      "type": "VEC3"
    },
    {
      "bufferView": 2,
      "byteOffset": 71736,
      "componentType": 5126,
      "count": 30,
      "max": [
        0.4059249758720398,
        0.8836656212806702,
        0.8915660977363586
      ],
      "min": [
        -0.4059256315231323,
        -0.20083695650100708,
        0.45621341466903687
      ],
      "type": "VEC3"
    },
    {
      "bufferView": 1,
      "byteOffset": 23792,
      "componentType": 5126,
      "count": 30,
      "max": [
        0.0,
        0.0
      ],
      "min": [
        0.0,
        0.0
      ],
      "type": "VEC2"
    },
    {
      "bufferView": 0,
      "byteOffset": 20208,
      "componentType": 5125,
      "count": 63,
      "type": "SCALAR"
    },
    {
      "bufferView": 2,
      "byteOffset": 72096,
      "componentType": 5126,
      "count": 22,
      "max": [
        0.7140129208564758,
        -1.9640482664108276,
        0.6093546152114868
      ],
      "min": [
        -0.7140128016471863,
        -2.25,
        0.0416666641831398
      ],
      "type": "VEC3"
    },
    {
      "bufferView": 2,
      "byteOffset": 72360,
      "componentType": 5126,
      "count": 22,
      "max": [
        0.38944128155708313,
        -0.5863154530525208,
        0.7103307843208313
      ],
      "min": [
        -0.38944143056869507,
        -0.7071068286895752,
        -0.7071078419685364
      ],
      "type": "VEC3"
    },
    {
      "bufferView": 1,
      "byteOffset": 24032,
      "componentType": 5126,
      "count": 22,
      "max": [
        0.0,
        0.0
      ],
      "min": [
        0.0,
        0.0
      ],
      "type": "VEC2"
    },
    {
      "bufferView": 0,
      "byteOffset": 20460,
      "componentType": 5125,
      "count": 42,
      "type": "SCALAR"
    },
    {
      "bufferView": 2,
      "byteOffset": 72624,
      "componentType": 5126,
      "count": 342,
      "max": [
        1.249328851699829,
        2.5405001640319824,
        0.7947183847427368
      ],
      "min": [
        -1.2493290901184082,
        -0.9018383026123047,
        0.07433799654245377
      ],
      "type": "VEC3"
    },
    {
      "bufferView": 2,
      "byteOffset": 76728,
      "componentType": 5126,
      "count": 342,
      "max": [
        0.9991142749786377,
        0.7688438296318054,
        0.8713690638542175
      ],
      "min": [
        -0.9991142749786377,
        -0.1023487076163292,
        -1.0
      ],
      "type": "VEC3"
    },
    {
      "bufferView": 1,
      "byteOffset": 24208,
      "componentType": 5126,
      "count": 342,
      "max": [
        0.0,
        0.0
      ],
      "min": [
        0.0,
        0.0
      ],
      "type": "VEC2"
    },
    {
      "bufferView": 0,
      "byteOffset": 20628,
      "componentType": 5125,
      "count": 378,
      "type": "SCALAR"
    }
  ],
  "asset": {
    "extras": {
      "author": "Mitya Petrov (https://sketchfab.com/mitya-petrov)",
      "license": "CC-BY-4.0 (http://creativecommons.org/licenses/by/4.0/)",
      "source": "https://sketchfab.com/3d-models/flying-car-1-low-poly-a53a3ce037df421fbde7a4dddb3174a1",
      "title": "Flying Car #1 (Low-Poly)"
    },
    "generator": "Sketchfab-12.64.0",
    "version": "2.0"
  },
  "bufferViews": [
    {
      "buffer": 0,
      "byteLength": 22140,
      "name": "floatBufferViews",
      "target": 34963
    },
    {
      "buffer": 0,
      "byteLength": 26944,
      "byteOffset": 22140,
      "byteStride": 8,
      "name": "floatBufferViews",
      "target": 34962
    },
    {
      "buffer": 0,
      "byteLength": 80832,
      "byteOffset": 49084,
      "byteStride": 12,
      "name": "floatBufferViews",
      "target": 34962
    }
  ],
  "buffers": [
    {
      "byteLength": 129916,
      "uri": "scene.bin"
    }
  ],
  "materials": [
    {
      "doubleSided": true,
      "emissiveFactor": [
        0.799103,
        0.0212189,
        0.033104799999999934
      ],
      "name": "Rear_Lights",
      "pbrMetallicRoughness": {
        "baseColorFactor": [
          0.799103,
          0.0212189,
          0.033104799999999934,
          1.0
        ],
        "metallicFactor": 0.0,
        "roughnessFactor": 0.0
      }
    },
    {
      "doubleSided": true,
      "name": "Black",
      "pbrMetallicRoughness": {
        "baseColorFactor": [
          0.0,
          0.0,
          0.0,
          1.0
        ],
        "metallicFactor": 0.0
      }
    },
    {
      "doubleSided": true,
      "name": "Paint",
      "pbrMetallicRoughness": {
        "baseColorFactor": [
          0.799103,
          0.0561284,
          0.0382044,
          1.0
        ],
        "metallicFactor": 0.0,
        "roughnessFactor": 0.0
      }
    },
    {
      "alphaMode": "BLEND",
      "doubleSided": true,
      "name": "Glass",
      "pbrMetallicRoughness": {
        "baseColorFactor": [
          0.0,
          0.0,
          0.0,
          0.7799722136086435
        ],
        "metallicFactor": 0.0,
        "roughnessFactor": 0.0
      }
    },
    {
      "doubleSided": true,
      "emissiveFactor": [
        0.018500099999999995,
        0.5520119999999997,
        0.799103
      ],
      "name": "Fly_Engine",
      "pbrMetallicRoughness": {
        "baseColorFactor": [
          0.018500099999999995,
          0.5520119999999997,
          0.799103,
          1.0
        ],
        "metallicFactor": 0.0,
        "roughnessFactor": 0.0
      }
    },
    {
      "doubleSided": true,
      "name": "Chrome",
      "pbrMetallicRoughness": {
        "baseColorFactor": [
          0.201901,
          0.201901,
          0.201901,
          1.0
        ],
        "metallicFactor": 0.0,
        "roughnessFactor": 0.0
      }
    },
    {
      "doubleSided": true,
      "name": "Dark_Gray",
      "pbrMetallicRoughness": {
        "baseColorFactor": [
          0.0203791,
          0.0203791,
          0.0203791,
          1.0
        ],
        "metallicFactor": 0.0
      }
    },
    {
      "doubleSided": true,
      "emissiveFactor": [
        0.799103,
        0.205079,
        0.002124700000000002
      ],
      "name": "Orange_Lights",
      "pbrMetallicRoughness": {
        "baseColorFactor": [
          0.799103,
          0.205079,
          0.002124700000000002,
          1.0
        ],
        "metallicFactor": 0.0,
        "roughnessFactor": 0.0
      }
    },
    {
      "doubleSided": true,
      "emissiveFactor": [
        1.0,
        1.0,
        1.0
      ],
      "name": "Lights",
      "pbrMetallicRoughness": {
        "baseColorFactor": [
          0.8,
          0.8,
          0.8,
          1.0
        ],
        "metallicFactor": 0.0,
        "roughnessFactor": 0.0
      }
    },
    {
      "doubleSided": true,
      "name": "Paint2",
      "pbrMetallicRoughness": {
        "baseColorFactor": [
          1.0,
          0.2231069999999999,
          0.19057699999999994,
          1.0
        ],
        "metallicFactor": 0.0,
        "roughnessFactor": 0.0
      }
    }
  ],
  "meshes": [
    {
      "name": "Flying Car_Rear Lights_0",
      "primitives": [
        {
          "attributes": {
            "NORMAL": 1,
            "POSITION": 0,
            "TEXCOORD_0": 2
          },
          "indices": 3,
          "material": 0,
          "mode": 4
        }
      ]
    },
    {
      "name": "Flying Car_Black_0",
      "primitives": [
        {
          "attributes": {
            "NORMAL": 5,
            "POSITION": 4,
            "TEXCOORD_0": 6
          },
          "indices": 7,
          "material": 1,
          "mode": 4
        }
      ]
    },
    {
      "name": "Flying Car_Paint_0",
      "primitives": [
        {
          "attributes": {
            "NORMAL": 9,
            "POSITION": 8,
            "TEXCOORD_0": 10
          },
          "indices": 11,
          "material": 2,
          "mode": 4
        }
      ]
    },
    {
      "name": "Flying Car_Glass_0",
      "primitives": [
        {
          "attributes": {
            "NORMAL": 13,
            "POSITION": 12,
            "TEXCOORD_0": 14
          },
          "indices": 15,
          "material": 3,
          "mode": 4
        }
      ]
    },
    {
      "name": "Flying Car_Fly Engine_0",
      "primitives": [
        {
          "attributes": {
            "NORMAL": 17,
            "POSITION": 16,
            "TEXCOORD_0": 18
          },
          "indices": 19,
          "material": 4,
          "mode": 4
        }
      ]
    },
    {
      "name": "Flying Car_Chrome_0",
      "primitives": [
        {
          "attributes": {
            "NORMAL": 21,
            "POSITION": 20,
            "TEXCOORD_0": 22
          },
          "indices": 23,
          "material": 5,
          "mode": 4
        }
      ]
    },
    {
      "name": "Flying Car_Dark Gray_0",
      "primitives": [
        {
          "attributes": {
            "NORMAL": 25,
            "POSITION": 24,
            "TEXCOORD_0": 26
          },
          "indices": 27,
          "material": 6,
          "mode": 4
        }
      ]
    },
    {
      "name": "Flying Car_Orange Lights_0",
      "primitives": [
        {
          "attributes": {
            "NORMAL": 29,
            "POSITION": 28,
            "TEXCOORD_0": 30
          },
          "indices": 31,
          "material": 7,
          "mode": 4
        }
      ]
    },
    {
      "name": "Flying Car_Lights_0",
      "primitives": [
        {
          "attributes": {
            "NORMAL": 33,
            "POSITION": 32,
            "TEXCOORD_0": 34
          },
          "indices": 35,
          "material": 8,
          "mode": 4
        }
      ]
    },
    {
      "name": "Flying Car_Paint2_0",
      "primitives": [
        {
          "attributes": {
            "NORMAL": 37,
            "POSITION": 36,
            "TEXCOORD_0": 38
          },
          "indices": 39,
          "material": 9,
          "mode": 4
        }
      ]
    }
  ],
  "nodes": [
    {
      "children": [
        1
      ],
      "matrix": [
        1.0,
        0.0,
        0.0,
        0.0,
        0.0,
        2.220446049250313e-16,
        -1.0,
        0.0,
        0.0,
        1.0,
        2.220446049250313e-16,
        0.0,
        0.0,
        0.0,
        0.0,
        1.0
      ],
      "name": "Sketchfab_model"
    },
    {
      "children": [
        2
      ],
      "matrix": [
        1.0,
        0.0,
        0.0,
        0.0,
        0.0,
        0.0,
        1.0,
        0.0,
        0.0,
        -1.0,
        0.0,
        0.0,
        0.0,
        0.0,
        0.0,
        1.0
      ],
      "name": "92c10289f9a349fa970eddb3129e30ac.fbx"
    },
    {
      "children": [
        3
      ],
      "name": "RootNode"
    },
    {
      "children": [
        4,
        5,
        6,
        7,
        8,
        9,
        10,
        11,
        12,
        13
      ],
      "matrix": [
        100.0,
        0.0,
        0.0,
        0.0,
        0.0,
        -1.629206793918314e-05,
        -99.99999999999868,
        0.0,
        0.0,
        99.99999999999868,
        -1.629206793918314e-05,
        0.0,
        0.0,
        0.0,
        0.0,
        1.0
      ],
      "name": "Flying Car"
    },
    {
      "mesh": 0,
      "name": "Flying Car_Rear Lights_0"
    },
    {
      "mesh": 1,
      "name": "Flying Car_Black_0"
    },
    {
      "mesh": 2,
      "name": "Flying Car_Paint_0"
    },
    {
      "mesh": 3,
      "name": "Flying Car_Glass_0"
    },
    {
      "mesh": 4,
      "name": "Flying Car_Fly Engine_0"
    },
    {
      "mesh": 5,
      "name": "Flying Car_Chrome_0"
    },
    {
      "mesh": 6,
      "name": "Flying Car_Dark Gray_0"
    },
    {
      "mesh": 7,
      "name": "Flying Car_Orange Lights_0"
    },
    {
      "mesh": 8,
      "name": "Flying Car_Lights_0"
    },
    {
      "mesh": 9,
      "name": "Flying Car_Paint2_0"
    }
  ],
  "scene": 0,
  "scenes": [
    {
      "name": "Sketchfab_Scene",
      "nodes": [
        0
      ]
    }
  ]
}
